<svg xmlns="http://www.w3.org/2000/svg" width="1407" height="793" viewBox="0 0 1407 793" fill="none"><path d="M1016.64 476.025C1015.21 486.947 1012.7 498.142 1009.12 509.595C1004.82 524.635 998.456 538.066 990.046 549.888C981.636 561.695 972.953 569.593 964.012 573.518C957.918 576.381 952.901 576.735 948.961 574.579C945.022 572.44 941.983 569.207 939.828 564.912C936.242 557.384 935.004 547.363 936.065 534.833C937.142 522.302 939.828 509.579 944.121 496.695C948.061 484.872 952.724 473.95 958.079 463.929C963.449 453.908 969.174 446.557 975.268 441.892C986.01 434.381 995.304 432.418 1003.2 435.989C1008.92 438.128 1012.86 442.439 1015 448.873C1017.54 456.08 1018.07 465.103 1016.64 476.025ZM1363.31 501.279C1362.41 498.963 1360.98 497.258 1359.02 496.18C1357.04 495.102 1354.88 494.571 1352.57 494.571C1350.24 494.571 1348.36 495.649 1346.93 497.788C1344.06 502.807 1340.75 509 1336.99 516.319C1333.23 523.67 1328.84 530.924 1323.82 538.082C1317.72 548.119 1311.29 556.709 1304.49 563.866C1297.69 571.04 1290.69 574.965 1283.54 575.689C1277.09 576.413 1272.97 574.081 1271.19 568.708C1270.11 565.491 1269.58 560.842 1269.58 554.746C1270.29 542.216 1272.27 529.943 1275.48 517.943C1278.7 505.944 1281.93 494.041 1285.15 482.218C1287.65 473.982 1290.32 464.943 1293.2 455.082C1296.06 445.238 1299.1 435.121 1302.34 424.73L1310.39 397.336C1311.1 393.766 1312.35 391.417 1314.15 390.355C1315.96 389.294 1318.27 388.747 1321.13 388.747L1340.46 389.294C1345.83 389.648 1349.77 388.586 1352.28 386.077C1354.77 383.568 1356.2 380.688 1356.57 377.471C1356.93 374.254 1356.12 371.214 1354.16 368.335C1352.18 365.472 1349.05 364.04 1344.77 364.04H1327.05C1324.19 364.04 1322.58 363.236 1322.21 361.627C1321.86 360.019 1322.03 358.314 1322.76 356.528C1326.68 343.628 1329.91 332.899 1332.42 324.294C1334.93 315.688 1336.54 310.509 1337.26 308.707C1339.4 302.981 1339.59 298.413 1337.79 295.002C1335.99 291.608 1333.5 289.453 1330.27 288.552C1327.05 287.668 1323.64 287.941 1320.06 289.357C1316.47 290.788 1314.15 293.651 1313.08 297.946C1312.37 301.163 1310.39 308.064 1307.18 318.632C1303.96 329.2 1300.2 341.826 1295.89 356.512C1295.16 358.652 1294.36 360.26 1293.48 361.338C1292.57 362.416 1289.79 362.946 1285.15 362.946H1261.51C1257.21 362.946 1253.9 364.201 1251.57 366.71C1249.24 369.22 1248.08 372.002 1248.08 375.042C1248.08 378.082 1249.16 380.865 1251.3 383.358C1253.44 385.868 1257.02 387.299 1262.04 387.653L1277.07 388.184C1279.94 388.554 1282.09 388.988 1283.52 389.535C1284.95 390.066 1285.32 391.948 1284.6 395.165C1283.17 399.46 1281.91 403.771 1280.84 408.065C1279.76 412.36 1278.5 416.655 1277.07 420.95C1273.86 432.418 1270.72 443.244 1267.68 453.442C1264.64 463.656 1261.86 472.873 1259.35 481.108C1258.37 484.599 1257.41 488.218 1256.44 491.805C1255.94 492.303 1255.41 492.738 1255.06 493.462C1254.34 494.539 1253.26 496.502 1251.84 499.365C1249.69 502.952 1245.94 509.225 1240.57 518.168C1235.2 527.128 1229.2 536.168 1222.58 545.304C1215.95 554.441 1209.33 562.226 1202.7 568.676C1196.08 575.126 1190.43 577.635 1185.79 576.188C1180.77 574.402 1178.26 570.654 1178.26 564.912C1178.62 561.341 1179.61 557.046 1181.22 552.028C1182.83 547.009 1184.79 541.653 1187.12 535.91C1189.45 530.184 1192.04 524.184 1194.9 517.911C1197.77 511.654 1200.45 505.284 1202.96 498.85C1205.45 492.046 1207.61 486.223 1209.41 481.398C1211.19 476.556 1212.17 472.181 1212.37 468.224C1212.54 464.283 1211.74 460.696 1209.94 457.479C1208.14 454.262 1204.92 451.029 1200.28 447.812C1195.98 444.595 1190.16 441.104 1182.83 437.34C1175.48 433.576 1169.31 430.81 1164.3 429.024C1160.72 427.593 1159.01 425.711 1159.19 423.394C1159.37 421.062 1159.64 419.18 1160 417.749C1161.07 413.808 1162.13 409.786 1163.21 405.653C1164.29 401.535 1164.82 398.044 1164.82 395.181C1164.1 390.532 1160.8 387.122 1154.88 384.983C1148.98 382.844 1143.51 384.275 1138.5 389.278C1135.99 391.787 1133.67 395.101 1131.52 399.218C1129.36 403.336 1127.66 407.808 1126.4 412.65C1125.15 417.491 1124.52 422.236 1124.52 426.885C1124.52 431.534 1125.41 435.667 1127.21 439.238C1128.99 442.118 1129.97 443.807 1130.17 444.337C1130.34 444.868 1129.54 447.297 1127.74 451.592C1123.8 461.629 1119.43 471.65 1114.59 481.671C1109.76 491.708 1105 500.652 1100.35 508.533C1099.5 510.222 1098.99 511.783 1098.73 513.23C1097.62 515.241 1096.46 517.348 1095.24 519.552C1090.42 528.334 1085.21 536.843 1079.68 545.063C1074.13 553.298 1068.21 560.553 1061.96 566.826C1055.68 573.099 1049.33 576.413 1042.88 576.767C1032.87 577.491 1028.2 569.963 1028.93 554.199C1029.63 548.119 1030.73 541.492 1032.14 534.318C1033.57 527.16 1035.18 519.632 1036.98 511.75C1039.12 503.515 1041.45 495.376 1043.96 487.301C1046.47 479.242 1048.98 471.73 1051.49 464.733C1054 457.752 1056.13 451.576 1057.94 446.203C1059.72 440.831 1061.15 436.906 1062.23 434.397C1064.01 429.748 1064.37 425.888 1063.31 422.848C1062.23 419.807 1060.52 417.572 1058.21 416.14C1055.88 414.708 1053.19 413.985 1050.15 413.985C1047.1 413.985 1044.51 414.885 1042.35 416.671C1040.55 417.749 1038.32 418.826 1035.65 419.888C1032.96 420.966 1029.47 420.258 1025.18 417.749C1022.32 415.947 1019.01 414.435 1015.24 413.18C1011.48 411.926 1007.44 410.945 1003.15 410.221C998.134 409.513 992.586 409.69 986.508 410.752C980.414 411.829 974.336 413.969 968.257 417.202C957.162 423.298 947.128 433.416 938.172 447.554C929.215 461.709 922.236 477.199 917.235 494.025C916.64 495.874 916.206 497.708 915.692 499.558C913.569 503.032 911.238 507.054 908.649 511.75C904.709 518.924 900.239 526.436 895.222 534.318C889.128 543.631 882.953 552.044 876.698 559.572C870.427 567.1 864.429 571.925 858.704 574.081C853.334 576.22 849.121 575.962 846.081 573.276C843.026 570.59 842.399 564.59 844.2 555.277C845.615 545.964 847.513 537.278 849.828 529.219C852.16 521.16 854.668 513.375 857.354 505.847C860.039 498.335 862.724 490.808 865.41 483.28C868.095 475.752 870.523 467.886 872.662 459.651C874.8 451.045 875.17 443.71 873.739 437.63C872.308 431.534 869.88 426.612 866.487 422.848C863.078 419.084 859.138 416.317 854.684 414.515C850.198 412.714 845.824 411.652 841.515 411.298C833.282 410.591 824.422 411.845 814.934 415.062C805.447 418.279 797.118 422.944 789.962 429.024C786.376 432.241 784.141 433.769 783.257 433.592C782.356 433.416 780.475 431.534 777.613 427.947C774.751 422.22 770.538 418.199 764.99 415.867C759.442 413.534 754.152 412.022 749.151 411.298C735.194 410.945 722.474 414.515 711.026 422.043C709.225 423.121 707.086 423.925 704.577 424.456C702.069 425.003 700.284 423.845 699.207 420.966C698.129 418.81 696.425 417.025 694.109 415.593C691.778 414.162 689.285 413.438 686.584 413.438C683.899 413.438 681.213 414.242 678.528 415.867C675.842 417.475 673.768 420.081 672.353 423.652L651.53 495.826C650.774 497.097 650.018 498.239 649.262 499.654C647.815 502.341 646.207 505.123 644.422 507.986C639.405 516.576 634.211 524.828 628.841 532.693C623.47 540.575 617.199 547.926 610.043 554.714C607.181 556.869 605.123 557.046 603.868 555.261C602.614 553.475 602.341 551.69 603.064 549.888C605.203 541.283 605.83 532.79 604.946 524.361C604.045 515.949 602.614 507.359 600.652 498.577C598.675 489.794 596.793 481.028 595.024 472.261C593.223 463.479 592.693 454.455 593.416 445.126C593.77 439.399 594.397 433.673 595.298 427.931C596.182 422.204 597.533 415.931 599.318 409.127C600.395 404.832 600.122 401.165 598.514 398.109C596.906 395.068 594.655 392.913 591.808 391.658C588.93 390.404 585.987 390.146 582.948 390.854C579.909 391.578 577.658 393.363 576.243 396.227L515.01 510.641C513.579 513.15 513.402 515.563 514.48 517.895C515.557 520.227 517.069 521.932 519.046 522.994C521.008 524.072 523.243 524.345 525.752 523.798C528.26 523.251 530.399 521.369 532.2 518.152L557.445 472.503C558.861 469.993 561.015 468.739 563.894 468.739C566.756 468.739 568.364 470.17 568.734 473.033C570.149 480.915 572.046 488.797 574.362 496.679C576.677 504.544 578.478 512.442 579.732 520.308C580.987 528.189 581.244 535.701 580.536 542.859C579.829 550.033 577.127 556.66 572.48 562.74C566.756 569.898 559.681 573.839 551.271 574.547C542.861 575.271 535.432 571.507 528.984 563.271C526.475 560.778 523.887 559.427 521.201 559.25C518.516 559.073 516.104 559.62 513.949 560.859C511.794 562.113 510.267 564.172 509.382 567.035C508.498 569.898 508.755 572.938 510.186 576.156C512.695 581.898 516.634 586.547 522.005 590.117C527.376 593.704 533.551 596.214 540.529 597.645C547.508 599.077 554.76 599.527 562.286 598.98C569.811 598.45 576.79 596.922 583.222 594.412C591.825 591.195 599.961 586.707 607.663 580.981C615.366 575.255 622.521 568.885 629.146 561.904C630.867 560.086 632.443 558.14 634.099 556.242L626.187 583.651C625.48 587.592 626.284 590.729 628.616 593.045C630.947 595.377 633.632 596.905 636.672 597.613C639.695 598.337 642.75 597.967 645.805 596.535C648.828 595.104 650.902 592.241 651.98 587.93L670.777 521.868C672.562 515.064 675.698 506.732 680.184 496.888C684.654 487.044 690.122 477.634 696.554 468.69C703.002 459.731 710.254 452.3 718.31 446.38C726.366 440.477 734.695 438.241 743.282 439.673C746.498 440.397 748.83 442.182 750.261 445.045C751.676 447.924 752.399 451.495 752.399 455.79C752.399 460.085 751.933 464.846 751.049 470.025C750.148 475.237 749.167 480.159 748.09 484.808C743.443 500.925 738.603 517.316 733.602 533.964C728.585 550.612 723.568 567.196 718.551 583.651C717.827 587.592 718.631 590.729 720.979 593.045C723.311 595.377 726.076 596.905 729.292 597.613C732.508 598.337 735.644 597.967 738.683 596.535C741.722 595.104 743.78 592.241 744.858 587.93C749.505 571.459 754.602 554.28 760.166 536.361C765.714 518.458 771.711 501.987 778.16 486.931C781.376 480.481 785.138 474.224 789.432 468.127C793.725 462.047 798.292 456.755 803.132 452.283C807.956 447.812 813.15 444.321 818.697 441.812C824.245 439.303 829.889 438.595 835.613 439.673C839.183 440.397 842.335 442.182 845.004 445.045C847.689 447.924 848.317 452.026 846.885 457.399C844.377 466.004 841.772 474.047 839.103 481.575C836.417 489.103 833.812 496.711 831.32 504.399C828.812 512.104 826.48 520.163 824.341 528.576C822.203 536.988 820.402 546.221 818.971 556.242C817.539 565.555 817.893 573.26 820.032 579.34C822.187 585.437 825.419 590.005 829.712 593.029C834.005 596.069 838.926 597.79 844.473 598.144C850.021 598.514 855.649 597.597 861.39 595.458C869.623 592.241 877.325 586.675 884.48 578.793C891.636 570.928 898.615 562.338 905.417 553.009C907.025 550.709 908.504 548.344 910.032 546.012C910.787 558.462 913.794 569.287 919.358 578.247C924.005 585.421 930.003 590.874 937.352 594.621C944.684 598.385 952.837 599.19 961.777 597.034C972.518 594.171 982.006 589.152 990.239 581.994C994.532 578.777 998.295 576.992 1001.51 576.622C1004.73 576.268 1008.31 579.131 1012.25 585.212C1016.19 590.954 1020.84 594.798 1026.21 596.761C1031.58 598.739 1037.48 599.173 1043.93 598.112C1053.24 596.68 1061.83 592.466 1069.71 585.485C1077.57 578.504 1084.74 570.445 1091.19 561.309C1097.64 552.172 1103.44 542.779 1108.65 533.112C1111.21 528.334 1113.62 523.863 1115.87 519.697L1115.89 519.68C1115.98 519.52 1116.05 519.359 1116.15 519.198C1118.35 515.128 1120.42 511.348 1122.34 507.858C1122.75 507.134 1123.03 506.442 1123.25 505.751C1130.65 491.773 1137.63 477.521 1143.82 462.739C1145.6 458.798 1148.02 456.482 1151.05 455.758C1154.09 455.05 1156.51 455.05 1158.31 455.758C1161.17 456.836 1163.95 458.01 1166.64 459.264C1169.32 460.519 1171.91 462.031 1174.42 463.833C1177.99 465.972 1180.32 468.224 1181.4 470.54C1182.46 472.873 1182.91 475.205 1182.75 477.521C1182.56 479.853 1182.02 482.282 1181.14 484.776C1180.24 487.285 1179.26 489.794 1178.18 492.303C1175.67 498.4 1172.89 504.93 1169.85 511.911C1166.81 518.892 1163.95 525.873 1161.27 532.87C1158.58 539.851 1156.25 546.655 1154.29 553.282C1152.31 559.909 1151.33 565.909 1151.33 571.266C1151.68 578.07 1154.11 583.989 1158.58 588.992C1163.05 594.01 1169.23 597.227 1177.1 598.659C1186.77 600.46 1196.26 597.951 1205.57 591.131C1214.88 584.327 1223.56 575.914 1231.62 565.877C1236.49 559.829 1240.91 553.508 1245.12 547.057C1244.99 549.036 1244.83 551.014 1244.79 552.993C1244.06 562.306 1244.96 570.365 1247.47 577.153C1250.33 585.035 1255 590.857 1261.43 594.621C1267.88 598.385 1275.39 599.543 1283.99 598.112C1295.44 596.326 1305.91 590.407 1315.41 580.386C1324.9 570.365 1333.21 559.443 1340.38 547.62C1345.03 540.463 1349.16 533.385 1352.73 526.404C1356.3 519.423 1359.53 513.423 1362.39 508.405C1363.92 506.04 1364.2 503.611 1363.31 501.279Z" fill="#67BFB5"></path><path d="M947.418 227.477H942.77V330.245H947.418V227.477Z" fill="#67BFB5" stroke="#67BFB5" stroke-width="2"></path><path d="M968.852 228.168L964.302 237.53L964.205 256.35H956.631V261.014H964.205V330.261H968.852V261.014H976.41V256.35H968.852V228.168Z" fill="#67BFB5" stroke="#67BFB5" stroke-width="2"></path><path d="M1032.53 229.021H1025.81L1005.61 251.042H1010.21L1032.53 229.021Z" fill="#67BFB5" stroke="#67BFB5" stroke-width="2"></path><path d="M1111.35 256.35H1106.71V330.245H1111.35V256.35Z" fill="#67BFB5" stroke="#67BFB5" stroke-width="2"></path><path d="M1105.73 226.479C1104.81 227.396 1104.34 228.522 1104.34 229.809C1104.34 231.096 1104.81 232.206 1105.73 233.123C1106.64 234.04 1107.75 234.522 1109.05 234.522C1110.32 234.522 1111.45 234.056 1112.37 233.139C1113.28 232.222 1113.75 231.096 1113.75 229.825C1113.75 228.554 1113.28 227.445 1112.35 226.496C1110.48 224.646 1107.56 224.646 1105.73 226.479Z" fill="#67BFB5" stroke="#67BFB5" stroke-width="2"></path><path d="M1159.21 327.285C1154.53 327.285 1150.36 326.353 1146.81 324.503C1143.26 322.669 1140.22 320.16 1137.79 317.039C1135.34 313.919 1133.5 310.283 1132.27 306.198C1131.05 302.112 1130.42 297.769 1130.42 293.281C1130.42 288.906 1131.05 284.611 1132.27 280.51C1133.5 276.44 1135.34 272.789 1137.79 269.668C1140.22 266.564 1143.26 264.022 1146.81 262.124C1150.35 260.242 1154.53 259.293 1159.19 259.293C1163.77 259.293 1167.91 260.242 1171.44 262.124C1175 264.022 1178.04 266.548 1180.47 269.668C1182.89 272.773 1184.76 276.424 1185.98 280.51C1187.22 284.628 1187.83 288.922 1187.83 293.281C1187.83 297.737 1187.2 302.08 1185.98 306.198C1184.76 310.283 1182.89 313.919 1180.47 317.039C1178.04 320.144 1175 322.653 1171.44 324.503C1167.91 326.353 1163.79 327.285 1159.21 327.285ZM1190.35 278.869C1188.92 274.188 1186.77 270.038 1183.95 266.516C1181.12 262.977 1177.62 260.082 1173.5 257.942C1169.37 255.771 1164.55 254.677 1159.19 254.677C1153.74 254.677 1148.88 255.771 1144.75 257.942C1140.63 260.082 1137.11 262.977 1134.3 266.516C1131.49 270.038 1129.35 274.188 1127.9 278.885C1126.48 283.534 1125.76 288.375 1125.76 293.314C1125.76 298.332 1126.48 303.222 1127.9 307.822C1129.33 312.439 1131.45 316.605 1134.22 320.176C1137 323.779 1140.52 326.674 1144.7 328.781C1148.88 330.905 1153.72 331.966 1159.06 331.966C1164.51 331.966 1169.35 330.905 1173.5 328.781C1177.62 326.674 1181.14 323.795 1183.97 320.192C1186.78 316.621 1188.94 312.455 1190.37 307.838C1191.79 303.238 1192.51 298.364 1192.51 293.33C1192.49 288.375 1191.79 283.518 1190.35 278.869Z" fill="#67BFB5" stroke="#67BFB5" stroke-width="2"></path><path d="M1016.69 327.285C1012.01 327.285 1007.85 326.353 1004.29 324.503C1000.74 322.669 997.7 320.16 995.272 317.055C992.828 313.935 990.978 310.283 989.756 306.214C988.534 302.128 987.907 297.785 987.907 293.297C987.907 288.922 988.534 284.611 989.756 280.526C990.978 276.456 992.828 272.805 995.272 269.684C997.7 266.58 1000.74 264.038 1004.29 262.156C1007.83 260.275 1012.01 259.326 1016.69 259.326C1021.27 259.326 1025.41 260.275 1028.94 262.156C1032.5 264.038 1035.54 266.58 1037.96 269.684C1040.39 272.805 1042.26 276.456 1043.48 280.526C1044.72 284.644 1045.33 288.938 1045.33 293.297C1045.33 297.753 1044.7 302.096 1043.48 306.214C1042.26 310.283 1040.39 313.935 1037.96 317.055C1035.54 320.16 1032.5 322.669 1028.94 324.503C1025.41 326.353 1021.27 327.285 1016.69 327.285ZM1041.44 266.516C1038.61 262.961 1035.1 260.082 1030.99 257.942C1026.85 255.771 1022.03 254.677 1016.67 254.677C1011.22 254.677 1006.37 255.771 1002.23 257.942C998.118 260.082 994.596 262.977 991.782 266.516C988.984 270.038 986.83 274.188 985.382 278.885C983.967 283.534 983.244 288.375 983.244 293.314C983.244 298.332 983.967 303.222 985.382 307.822C986.814 312.439 988.936 316.605 991.702 320.176C994.484 323.779 998.005 326.674 1002.19 328.781C1006.37 330.905 1011.21 331.966 1016.55 331.966C1022 331.966 1026.84 330.905 1030.99 328.781C1035.1 326.674 1038.62 323.795 1041.45 320.192C1044.27 316.621 1046.42 312.455 1047.85 307.838C1049.27 303.238 1049.99 298.364 1049.99 293.33C1049.99 288.408 1049.27 283.55 1047.85 278.901C1046.41 274.188 1044.25 270.038 1041.44 266.516Z" fill="#67BFB5" stroke="#67BFB5" stroke-width="2"></path><path d="M1077.05 259.744C1073.58 262.157 1070.9 265.438 1069.05 269.508V256.35H1064.4V330.245H1069.05V288.52C1069.05 284.611 1069.59 280.831 1070.69 277.293C1071.78 273.77 1073.39 270.633 1075.49 267.996C1077.6 265.358 1080.25 263.234 1083.37 261.658C1086.49 260.098 1090.18 259.31 1094.31 259.31H1094.76L1098.49 254.661H1094.32C1087.72 254.677 1081.89 256.382 1077.05 259.744Z" fill="#67BFB5" stroke="#67BFB5" stroke-width="2"></path><path d="M587.66 269.894C590.088 266.66 593.207 264.071 596.938 262.173C600.668 260.291 605.171 259.326 610.316 259.326C616.604 259.326 621.942 261.095 626.203 264.585C630.433 268.06 633.07 272.998 634.067 279.287L634.195 280.059H638.842L638.714 279.014C638.231 275.266 637.186 271.872 635.594 268.88C634.002 265.888 631.912 263.331 629.403 261.24C626.895 259.165 623.968 257.524 620.704 256.382C617.44 255.24 613.951 254.645 610.316 254.645C604.415 254.645 599.221 255.739 594.912 257.894C590.602 260.049 586.984 263.009 584.154 266.709C581.324 270.392 579.202 274.719 577.819 279.561C576.452 284.37 575.76 289.501 575.76 294.809C575.76 299.732 576.484 304.477 577.899 308.9C579.33 313.34 581.437 317.297 584.154 320.691C586.888 324.101 590.329 326.851 594.413 328.862C598.498 330.872 603.273 331.902 608.628 331.902C612.728 331.902 616.588 331.275 620.077 330.036C623.582 328.781 626.686 326.948 629.291 324.599C631.88 322.235 634.034 319.356 635.659 316.058C637.299 312.744 638.312 308.964 638.698 304.863L638.794 303.849H634.115L634.051 304.702C633.777 308.208 632.941 311.361 631.558 314.096C630.159 316.83 628.326 319.211 626.091 321.189C623.856 323.152 621.219 324.68 618.276 325.709C615.301 326.739 612.069 327.269 608.628 327.269C604.029 327.269 599.929 326.385 596.423 324.631C592.918 322.862 589.943 320.481 587.628 317.522C585.28 314.53 583.463 311.056 582.257 307.179C581.019 303.27 580.408 299.12 580.408 294.842C580.408 290.08 581.003 285.496 582.193 281.201C583.382 276.955 585.216 273.143 587.66 269.894Z" fill="#67BFB5" stroke="#67BFB5" stroke-width="2"></path><path d="M684.156 327.285C679.477 327.285 675.312 326.353 671.758 324.503C668.204 322.669 665.165 320.16 662.737 317.055C660.293 313.935 658.444 310.283 657.222 306.214C656 302.128 655.373 297.785 655.373 293.297C655.373 288.922 656 284.611 657.222 280.526C658.444 276.456 660.293 272.805 662.737 269.684C665.165 266.58 668.204 264.038 671.758 262.156C675.296 260.275 679.477 259.326 684.156 259.326C688.739 259.326 692.871 260.275 696.409 262.156C699.962 264.038 703.002 266.58 705.43 269.684C707.858 272.805 709.723 276.456 710.945 280.526C712.167 284.644 712.794 288.938 712.794 293.297C712.794 297.753 712.167 302.096 710.945 306.214C709.723 310.283 707.858 313.935 705.43 317.055C703.002 320.16 699.962 322.669 696.409 324.503C692.871 326.353 688.755 327.285 684.156 327.285ZM708.919 266.516C706.089 262.961 702.583 260.082 698.467 257.942C694.334 255.771 689.51 254.677 684.156 254.677C678.705 254.677 673.849 255.771 669.716 257.942C665.599 260.082 662.078 262.977 659.264 266.516C656.45 270.038 654.311 274.188 652.864 278.885C651.449 283.534 650.725 288.375 650.725 293.314C650.725 298.332 651.449 303.206 652.864 307.822C654.295 312.439 656.418 316.605 659.184 320.176C661.965 323.779 665.487 326.674 669.668 328.781C673.849 330.905 678.689 331.966 684.027 331.966C689.462 331.966 694.318 330.905 698.467 328.781C702.583 326.674 706.105 323.795 708.935 320.192C711.749 316.621 713.904 312.455 715.335 307.838C716.75 303.238 717.474 298.364 717.474 293.33C717.474 288.408 716.75 283.55 715.335 278.901C713.888 274.188 711.733 270.038 708.919 266.516Z" fill="#67BFB5" stroke="#67BFB5" stroke-width="2"></path><path d="M761.806 254.677C755.294 254.677 749.505 256.414 744.601 259.824C741.079 262.269 738.378 265.55 736.528 269.604V256.366H731.881V330.261H736.528V288.536C736.528 284.628 737.075 280.847 738.169 277.309C739.262 273.786 740.886 270.666 742.976 268.011C745.083 265.374 747.736 263.25 750.872 261.674C753.991 260.114 757.674 259.326 761.806 259.326C768.801 259.326 774.252 261.352 778.031 265.341C781.81 269.363 783.723 274.944 783.723 281.941V330.245H788.37V281.523C788.37 273.384 785.974 266.789 781.247 261.947C776.503 257.122 769.959 254.677 761.806 254.677Z" fill="#67BFB5" stroke="#67BFB5" stroke-width="2"></path><path d="M849.249 296.45C846.982 295.002 844.409 293.86 841.579 293.04C838.813 292.252 836.031 291.48 833.201 290.724C830.484 290.064 827.589 289.405 824.486 288.745C821.479 288.118 818.665 287.201 816.124 286.075C813.648 284.965 811.542 283.421 809.853 281.475C808.229 279.609 807.409 276.987 807.409 273.673C807.409 273.094 807.586 272.001 807.94 270.44C808.277 268.944 809.113 267.352 810.432 265.695C811.735 264.038 813.793 262.559 816.542 261.272C819.308 259.985 823.183 259.325 828.056 259.325C831.416 259.325 834.52 259.695 837.286 260.419C840.003 261.127 842.367 262.285 844.296 263.829C846.226 265.373 847.738 267.352 848.799 269.716C849.86 272.097 850.391 275.089 850.391 278.595V279.528H855.038V278.595C855.038 270.296 852.562 264.167 847.689 260.355C842.865 256.607 836.273 254.693 828.056 254.693C823.505 254.693 819.582 255.288 816.398 256.43C813.23 257.588 810.577 259.1 808.519 260.95C806.46 262.816 804.965 264.923 804.08 267.191C803.212 269.443 802.762 271.631 802.762 273.706C802.762 277.695 803.534 280.928 805.077 283.308C806.605 285.689 808.647 287.587 811.156 289.019C813.6 290.418 816.366 291.48 819.389 292.204C822.331 292.895 825.274 293.619 828.281 294.375C831.368 295.115 834.391 295.871 837.382 296.611C840.276 297.335 842.865 298.332 845.084 299.538C847.255 300.729 849.04 302.273 850.391 304.123C851.709 305.908 852.385 308.321 852.385 311.281C852.385 314.16 851.709 316.637 850.375 318.615C849.008 320.642 847.255 322.315 845.133 323.602C842.994 324.889 840.566 325.854 837.913 326.433C835.243 327.028 832.59 327.318 830.05 327.318C821.897 327.318 815.545 325.452 811.156 321.784C806.83 318.165 804.627 312.407 804.627 304.702V303.785H799.98V304.702C799.98 313.999 802.585 320.964 807.731 325.371C812.828 329.746 820.337 331.982 830.066 331.982C833.185 331.982 836.401 331.596 839.601 330.84C842.833 330.068 845.76 328.846 848.3 327.221C850.889 325.548 853.012 323.377 854.62 320.755C856.244 318.085 857.064 314.819 857.064 311.023C857.064 307.404 856.34 304.412 854.893 302.128C853.446 299.812 851.549 297.93 849.249 296.45Z" fill="#67BFB5" stroke="#67BFB5" stroke-width="2"></path><path d="M921.32 298.075C921.32 302 920.757 305.78 919.68 309.302C918.602 312.825 916.978 315.962 914.872 318.6C912.765 321.237 910.112 323.377 906.976 324.937C903.857 326.497 900.175 327.302 896.042 327.302C889.047 327.302 883.596 325.275 879.817 321.286C876.039 317.281 874.125 311.699 874.125 304.686V256.382H869.478V305.104C869.478 313.259 871.874 319.854 876.601 324.68C881.345 329.521 887.889 331.966 896.042 331.966C902.554 331.966 908.343 330.229 913.248 326.819C916.769 324.374 919.471 321.093 921.32 317.039V330.277H925.967V256.382H921.32V298.075V298.075Z" fill="#67BFB5" stroke="#67BFB5" stroke-width="2"></path><path d="M266.14 94.018C255.929 94.018 247.648 85.7341 247.648 75.52V34.5832C247.648 24.3691 255.929 16.0852 266.14 16.0852C276.351 16.0852 284.632 24.3691 284.632 34.5832V75.52C284.616 85.7341 276.351 94.018 266.14 94.018Z" fill="#F3C145"></path><path d="M382.559 111.583C380.501 111.583 378.411 111.229 376.369 110.505C366.737 107.095 361.72 96.5112 365.129 86.8922L378.829 48.3199C382.238 38.6849 392.834 33.6502 402.45 37.0764C412.082 40.5025 417.099 51.0705 413.69 60.6894L399.99 99.2617C397.289 106.854 390.165 111.583 382.559 111.583Z" fill="#F3C145"></path><path d="M149.705 111.583C142.099 111.583 134.976 106.854 132.274 99.2617L118.574 60.6895C115.149 51.0705 120.182 40.4865 129.814 37.0764C139.43 33.6342 150.01 38.6849 153.435 48.3199L167.136 86.8922C170.561 96.5112 165.528 107.095 155.896 110.505C153.853 111.229 151.763 111.583 149.705 111.583Z" fill="#F3C145"></path><path d="M66.925 174.508C62.1975 174.508 57.47 172.707 53.852 169.088L24.908 140.15C17.6881 132.928 17.6881 121.218 24.908 113.996C32.1279 106.774 43.8341 106.774 51.0541 113.996L79.9981 142.933C87.218 150.155 87.218 161.865 79.9981 169.088C76.3961 172.707 71.6686 174.508 66.925 174.508Z" fill="#F3C145"></path><path d="M463.892 174.508C459.165 174.508 454.421 172.707 450.819 169.088C443.599 161.865 443.599 150.155 450.819 142.933L479.747 113.996C486.967 106.774 498.673 106.774 505.893 113.996C513.113 121.218 513.113 132.928 505.893 140.15L476.965 169.088C473.347 172.707 468.62 174.508 463.892 174.508Z" fill="#F3C145"></path><path d="M265.963 172.401C262.345 172.401 258.711 172.514 255.045 172.739C169.692 178.031 103.169 249.996 100.323 340.121C99.2137 375.67 113.959 413.357 144.141 452.09C167.827 482.491 180.337 517.702 180.337 553.926C180.337 590.037 196.803 631.891 243.21 631.891H289.022C335.429 631.891 351.895 590.037 351.895 554.199C351.895 518.184 364.678 482.025 387.866 452.38C417.147 414.966 432.005 379.08 432.005 345.719C432.005 295.807 412.211 248.581 377.719 216.153C347.489 187.714 308.141 172.401 265.963 172.401ZM289.038 668.887H243.226C183.489 668.887 143.369 622.803 143.369 554.199C143.369 526.018 133.561 498.673 114.988 474.851C79.3388 429.105 61.9724 383.391 63.3713 338.963C66.8125 229.632 148.242 142.29 252.762 135.823C309.315 132.317 362.701 151.265 403.061 189.21C444.966 228.603 469.005 285.657 469.005 345.735C469.005 387.557 451.51 431.115 417.019 475.189C398.623 498.705 388.895 526.018 388.895 554.215C388.895 622.803 348.759 668.887 289.038 668.887Z" fill="#F3C145"></path><path d="M274.244 719.925H258.02C222.499 719.925 189.036 709.856 168.502 692.998C162.183 687.803 161.266 678.49 166.46 672.168C171.638 665.83 180.964 664.93 187.284 670.109C202.463 682.575 229.574 690.312 258.02 690.312H274.244C303.414 690.312 330.846 682.286 345.849 669.369C352.039 664.029 361.382 664.737 366.704 670.929C372.043 677.122 371.335 686.468 365.145 691.792C344.707 709.421 310.73 719.925 274.244 719.925Z" fill="#BA659A"></path><path d="M272.572 767.264H259.949C232.404 767.264 207.384 762.937 191.304 755.393C183.907 751.919 180.723 743.104 184.196 735.705C187.654 728.305 196.466 725.121 203.878 728.595C213.221 732.986 232.871 737.683 259.965 737.683H272.588C300.342 737.683 320.089 732.825 329.302 728.289C336.635 724.686 345.495 727.71 349.113 735.029C352.715 742.364 349.708 751.227 342.375 754.846C326.553 762.615 300.455 767.264 272.572 767.264Z" fill="#BA659A"></path><path d="M209.41 460.664C209.41 448.471 218.608 438.547 229.912 438.547C240.107 438.547 251.202 448.793 254.241 452.316C257.312 455.967 261.863 458.042 266.622 458.074C271.607 458.01 275.965 455.999 279.068 452.38C282.156 448.793 293.267 438.547 303.462 438.547C314.766 438.547 323.964 448.471 323.964 460.664C323.964 480.947 289.134 506.764 266.671 519.729C244.239 506.764 209.41 480.947 209.41 460.664ZM330.444 549.872L301.307 536.361C325.475 519.729 356.526 492.223 356.526 460.664C356.526 430.52 332.727 405.99 303.478 405.99C288.379 405.99 275.515 413.036 266.703 419.743C257.875 413.036 245.011 405.99 229.928 405.99C200.678 405.99 176.88 430.52 176.88 460.664C176.88 492.223 207.93 519.729 232.099 536.361L202.962 549.872C194.809 553.652 191.272 563.336 195.05 571.491C197.8 577.442 203.685 580.933 209.828 580.933C212.111 580.933 214.443 580.45 216.662 579.421L266.719 556.21L316.776 579.421C318.995 580.45 321.311 580.933 323.61 580.933C329.753 580.933 335.638 577.442 338.388 571.491C342.15 563.32 338.597 553.636 330.444 549.872Z" fill="#EA5E6B"></path></svg>