<svg xmlns="http://www.w3.org/2000/svg" width="458" height="156" viewBox="0 0 458 156" fill="none"><path fill-rule="evenodd" clip-rule="evenodd" d="M72.4109 2.87947C39.3216 -8.58153 -1.00139 15.4702 0.0189798 51.985C0.237631 60.4213 2.78857 68.6936 7.12516 75.7998C9.26958 79.4679 12.118 82.5243 14.9661 85.5804C17.6357 88.4449 20.305 91.3092 22.3943 94.6767C26.6763 101.364 29.7192 109.126 29.8285 117.161C30.3751 109.053 27.8606 100.89 23.8156 93.8021C21.9582 90.3196 19.4357 87.2703 16.915 84.2232C14.2922 81.0526 11.6712 77.8843 9.80364 74.2328C2.11439 60.6946 1.98684 43.2754 10.332 30.0834C22.3214 10.095 48.6143 1.33068 70.4613 8.80128C100.489 18.5131 113.117 55.119 91.7798 79.4987C84.3456 85.9489 80.8654 95.5695 79.5171 104.953C79.2427 107.357 79.0223 109.721 78.8075 112.026C78.6087 114.158 78.4147 116.24 78.187 118.255C73.1944 118.437 68.2565 118.473 63.3551 118.419C63.0453 112.46 60.877 106.867 57.907 101.601C60.2822 98.2961 62.8108 95.1034 65.3396 91.9105L65.3397 91.9104C69.5037 86.6528 73.6681 81.3947 77.1484 75.6358C80.337 70.0784 82.5235 63.7011 82.6875 57.0504C83.5439 43.6033 71.9372 29.2817 57.6884 34.3653C54.5908 35.5497 52.0399 37.6633 50.0538 40.3053C41.8908 33.5454 29.8649 31.5593 22.6494 41.3986C14.8509 51.8028 18.3493 66.6711 27.6966 74.6701L31.0311 77.7312C38.9936 85.2747 46.7193 93.1644 53.3518 101.91C50.4364 106.994 47.9584 112.296 46.4096 117.963C42.2694 117.798 38.1083 117.59 33.9025 117.38L33.9004 117.38C32.554 117.313 31.203 117.246 29.8467 117.18C43.7858 126.163 63.3186 127.566 78.0594 119.658C77.8772 121.225 77.6585 122.737 77.4034 124.195C77.2397 124.267 77.076 124.336 76.9123 124.404L76.9114 124.404L76.9111 124.404C76.7472 124.473 76.5834 124.541 76.4195 124.614C71.3723 126.709 66.4891 128.513 60.8588 129.752C64.4301 131.902 68.9489 131.52 72.7389 130.189C74.0872 129.661 75.3445 128.95 76.5288 128.149C76.2737 129.114 76.0004 130.062 75.6725 130.955C71.7732 132.904 68.0014 134.326 63.1 135.364C65.9971 137.387 69.6777 137.532 72.9393 136.385C69.0765 141.851 62.3165 144.876 49.8898 144.019C42.0365 143.691 34.2015 139.847 31.7235 131.92C30.3387 128.203 29.8467 124.14 29.5916 120.131C29.3547 128.13 30.5573 137.478 37.8639 142.325C39.8136 143.509 42.0365 144.493 44.4235 145.258C44.4964 159.307 65.7967 159.671 65.6145 145.586C68.712 144.62 71.5363 143.126 73.8321 141.049C80.2641 134.982 81.6854 125.816 82.7422 117.617C83.9266 106.447 85.694 93.5652 93.6383 85.548C121.571 59.0365 108.124 14.2129 72.4291 2.89769L72.4109 2.87947ZM47.9766 86.9693C44.0955 82.1043 39.9958 77.4397 35.6045 73.0484L32.2883 69.7869C25.583 63.7922 22.4672 52.8049 27.7695 45.1521C32.7074 38.0642 41.1255 39.8134 47.4482 44.897C44.9519 50.8006 44.8972 57.8704 48.0312 63.2638C50.072 66.5435 55.8298 67.9101 58.3261 64.2841C61.1868 59.3645 59.0914 53.7342 56.996 49.179C55.7387 46.3911 53.8073 43.822 51.5114 41.6173C53.2242 39.2303 55.5201 37.3171 58.399 36.3332C70.7346 32.2335 79.2438 45.7716 77.4581 56.7953C76.5801 67.934 69.7487 77.4135 63.3265 86.3251L63.3232 86.3296C62.9494 86.8484 62.577 87.3652 62.2072 87.8803C61.8046 88.496 61.4002 89.1123 60.995 89.7297C59.2178 92.4378 57.4269 95.1669 55.7205 97.9565C53.4077 94.332 50.8334 90.871 48.3691 87.558L48.3691 87.5579L47.9584 87.0057L47.9766 86.9693ZM55.5383 62.4256C55.1374 63.1544 54.3539 63.4824 53.1149 63.3549C50.8555 63.1727 49.1245 60.7128 48.4139 58.0161C47.5211 54.3355 47.7579 50.1264 49.0698 46.3547C53.7891 50.8371 56.8684 57.1051 55.5383 62.4256ZM47.6122 118.054C49.6107 113.921 52.2497 110.011 54.8387 106.176C54.9357 106.032 55.0326 105.888 55.1294 105.745C55.205 105.633 55.2806 105.521 55.3561 105.409C55.4016 105.336 55.4517 105.268 55.5018 105.199C55.5519 105.131 55.6021 105.063 55.6476 104.99C58.4901 109.162 61.2597 113.535 62.4076 118.473C57.4697 118.419 52.55 118.255 47.6122 118.072V118.054ZM60.5673 149.449C55.1192 152.947 49.2703 150.287 45.4074 145.604C51.3657 147.299 58.1803 147.572 64.1932 146.023C63.0089 147.445 61.8245 148.629 60.5673 149.449ZM316.845 3.48054C317.428 3.02502 318.048 2.78815 318.758 2.78815C319.469 2.78815 320.107 3.02502 320.69 3.48054C321.273 3.95429 321.564 4.55558 321.564 5.28442C321.564 6.01326 321.273 6.61455 320.69 7.07008C320.107 7.5256 319.469 7.76247 318.758 7.76247C318.048 7.76247 317.41 7.5256 316.845 7.07008C316.262 6.61455 315.989 6.03148 315.989 5.28442C315.989 4.53736 316.28 3.93607 316.845 3.48054ZM259.304 3.57196H255.313V36.6248H259.304V3.57196ZM136.768 16.2717C135.802 16.8001 134.982 17.529 134.363 18.4218H134.381C133.761 19.3146 133.306 20.3532 133.032 21.5012C132.759 22.6491 132.632 23.8517 132.632 25.1089C132.632 26.2568 132.777 27.3865 133.069 28.4616C133.36 29.5366 133.798 30.5023 134.399 31.3405C135 32.1786 135.766 32.8346 136.713 33.3448C137.66 33.8367 138.772 34.0918 140.066 34.0918C140.977 34.0918 141.833 33.9461 142.617 33.6545C143.382 33.363 144.074 32.9439 144.676 32.4155C145.277 31.8689 145.751 31.2311 146.097 30.4841C146.461 29.737 146.68 28.8989 146.771 27.9878H150.579C150.415 29.4273 150.051 30.721 149.449 31.8507C148.848 32.9804 148.083 33.9461 147.172 34.7296C146.243 35.5131 145.168 36.1144 143.947 36.5335C142.726 36.9708 141.396 37.1712 139.993 37.1712C138.244 37.1712 136.658 36.8614 135.255 36.2237C133.834 35.6042 132.65 34.7296 131.666 33.6545C130.682 32.5795 129.917 31.304 129.388 29.8281C128.86 28.3522 128.586 26.8581 128.586 25.0907C128.586 23.3232 128.842 21.6651 129.37 20.1164C129.898 18.5676 130.645 17.2192 131.648 16.0713C132.65 14.9234 133.871 14.0123 135.328 13.3564C136.786 12.7004 138.444 12.3724 140.303 12.3724C141.614 12.3724 142.853 12.5729 144.038 12.9373C145.222 13.3199 146.261 13.8666 147.19 14.5954C148.101 15.3242 148.848 16.2171 149.431 17.2557C150.014 18.2943 150.397 19.5151 150.543 20.8816H146.735C146.479 19.1689 145.787 17.8387 144.639 16.8912C143.491 15.9438 142.07 15.47 140.394 15.47C138.954 15.47 137.752 15.7433 136.768 16.2717ZM456.163 106.83C456.946 107.268 457.511 107.942 457.876 108.871L457.803 108.889C458.149 109.818 458.04 110.784 457.475 111.786C456.327 113.791 455.033 116.178 453.612 118.965C452.172 121.735 450.533 124.559 448.674 127.42C445.813 132.139 442.497 136.494 438.707 140.503C434.917 144.511 430.745 146.862 426.171 147.572C422.746 148.155 419.739 147.682 417.17 146.188C414.601 144.693 412.742 142.379 411.594 139.227C410.592 136.512 410.228 133.305 410.519 129.588C410.556 128.823 410.61 128.021 410.665 127.238C408.971 129.807 407.203 132.34 405.272 134.745C402.065 138.753 398.603 142.106 394.886 144.821C391.169 147.536 387.397 148.538 383.534 147.827C380.382 147.263 377.922 145.969 376.136 143.965C374.351 141.979 373.385 139.61 373.239 136.895C373.239 134.745 373.64 132.358 374.424 129.716C375.207 127.074 376.136 124.359 377.211 121.571C378.286 118.783 379.416 115.995 380.637 113.208C381.839 110.42 382.951 107.814 383.953 105.391C384.39 104.389 384.773 103.386 385.137 102.384C385.484 101.382 385.702 100.416 385.775 99.4872C385.848 98.5579 385.666 97.6286 385.247 96.6994C384.828 95.7701 383.88 94.8773 382.459 94.0209C381.475 93.3103 380.436 92.6908 379.361 92.1988C378.286 91.7068 377.193 91.2513 376.045 90.814C375.316 90.5407 374.369 90.5407 373.148 90.814C371.927 91.1055 370.962 92.0348 370.251 93.6018C366.971 101.473 363.254 109.035 359.118 116.323C358.686 117.126 358.236 117.959 357.772 118.819C357.277 119.736 356.765 120.685 356.239 121.662C354.18 125.525 351.848 129.278 349.279 132.923C346.709 136.567 343.849 139.774 340.715 142.562C337.581 145.331 334.155 147.026 330.438 147.591C327.869 148.028 325.518 147.846 323.368 147.062C321.218 146.279 319.36 144.748 317.793 142.452C316.226 140.029 314.786 138.881 313.511 139.027C312.217 139.172 310.723 139.883 309.01 141.177C305.73 144.037 301.941 146.024 297.659 147.171C294.087 148.028 290.844 147.7 287.91 146.206C284.977 144.693 282.59 142.525 280.731 139.664C278.508 136.075 277.324 131.757 277.014 126.8C276.778 127.155 276.547 127.512 276.317 127.868L276.316 127.869L276.316 127.869L276.316 127.87L276.315 127.871C275.941 128.449 275.568 129.025 275.174 129.588C272.459 133.305 269.671 136.731 266.81 139.883C263.95 143.035 260.87 145.24 257.591 146.534C255.313 147.39 253.054 147.755 250.849 147.609C248.644 147.463 246.676 146.789 244.964 145.568C243.251 144.347 241.957 142.525 241.101 140.102C240.244 137.678 240.099 134.599 240.663 130.882C241.246 126.892 241.957 123.211 242.813 119.858C243.67 116.506 244.599 113.299 245.601 110.219C246.585 107.14 247.642 104.097 248.699 101.109C249.756 98.1206 250.794 94.8955 251.796 91.4699C252.361 89.3381 252.124 87.6982 251.049 86.5503C249.974 85.4024 248.717 84.6917 247.296 84.4002C245.018 83.9629 242.759 84.2544 240.554 85.2566C238.331 86.2588 236.272 87.6435 234.341 89.4292C232.409 91.2149 230.587 93.3285 228.874 95.7519C227.162 98.1753 225.668 100.672 224.374 103.241C221.805 109.235 219.4 115.813 217.195 122.956C214.99 130.098 212.949 136.949 211.091 143.527C210.672 145.24 209.852 146.388 208.631 146.953C207.41 147.536 206.171 147.682 204.877 147.39C203.602 147.117 202.49 146.497 201.561 145.568C200.632 144.639 200.304 143.382 200.595 141.814C201.458 138.958 202.324 136.097 203.192 133.23C204.323 129.497 205.456 125.752 206.59 121.99C208.576 115.358 210.508 108.816 212.366 102.384C212.804 100.544 213.186 98.5761 213.551 96.4989C213.897 94.4217 214.079 92.5268 214.079 90.814C214.079 89.1012 213.787 87.68 213.223 86.5321C212.658 85.3841 211.728 84.6735 210.435 84.382C207.009 83.8171 203.693 84.71 200.468 87.0605C197.261 89.411 194.364 92.381 191.795 95.9523C189.226 99.5418 187.039 103.295 185.253 107.213C183.468 111.149 182.21 114.465 181.5 117.18L173.993 143.527C173.574 145.24 172.754 146.388 171.533 146.953C170.312 147.536 169.091 147.682 167.889 147.39C166.686 147.117 165.611 146.497 164.682 145.568C163.753 144.639 163.425 143.382 163.716 141.814L166.868 130.882C166.787 130.977 166.705 131.073 166.624 131.169C166.537 131.272 166.449 131.375 166.362 131.478C165.885 132.043 165.413 132.602 164.901 133.141C162.24 135.929 159.398 138.48 156.318 140.758C153.239 143.054 149.996 144.839 146.57 146.115C144.001 147.117 141.213 147.718 138.207 147.937C135.219 148.155 132.321 147.973 129.534 147.408C126.746 146.843 124.286 145.841 122.136 144.402C119.986 142.962 118.419 141.122 117.417 138.826C116.834 137.533 116.743 136.33 117.089 135.182C117.435 134.034 118.054 133.232 118.911 132.722C119.767 132.23 120.733 132.012 121.808 132.084C122.883 132.157 123.922 132.686 124.924 133.688C127.493 136.968 130.463 138.48 133.816 138.189C137.186 137.897 139.992 136.33 142.288 133.469C144.129 131.046 145.204 128.404 145.495 125.543C145.769 122.682 145.659 119.694 145.167 116.542C144.657 113.39 143.946 110.256 143.017 107.104C142.088 103.97 141.341 100.817 140.776 97.6833C140.63 96.5536 139.992 95.9705 138.845 95.9705C137.697 95.9705 136.84 96.4625 136.275 97.4647L126.199 115.686C125.489 116.961 124.632 117.708 123.63 117.927C122.628 118.127 121.735 118.036 120.952 117.599C120.168 117.162 119.549 116.487 119.129 115.558C118.71 114.629 118.783 113.663 119.348 112.661L143.782 67.0174C144.347 65.8695 145.24 65.1589 146.461 64.8673C147.682 64.594 148.848 64.7033 149.996 65.1953C151.144 65.6873 152.037 66.5437 152.674 67.7645C153.33 68.9853 153.421 70.4429 153.002 72.1557C152.292 74.8706 151.745 77.3851 151.399 79.6628C151.053 81.9404 150.798 84.218 150.652 86.5138C150.36 90.2309 150.579 93.8387 151.29 97.3371C152 100.836 152.747 104.334 153.531 107.832C154.314 111.331 154.879 114.756 155.243 118.109C155.608 121.48 155.353 124.869 154.496 128.295C154.223 129.023 154.314 129.734 154.824 130.445C155.316 131.155 156.136 131.082 157.284 130.226C160.145 127.511 162.641 124.577 164.791 121.443C166.941 118.309 169 115.011 171.005 111.586C171.715 110.456 172.371 109.345 172.936 108.27C173.206 107.746 173.489 107.265 173.762 106.8L173.884 106.593L182.156 77.95C182.721 76.5288 183.541 75.4902 184.616 74.8524C185.672 74.2147 186.748 73.8867 187.823 73.8867C188.898 73.8867 189.9 74.1783 190.829 74.7431C191.758 75.3262 192.451 76.0368 192.87 76.8932C193.307 78.0411 194.018 78.5148 195.02 78.2962C196.022 78.0775 196.878 77.7678 197.589 77.3305C202.162 74.3422 207.228 72.9028 212.804 73.0485C214.808 73.3401 216.903 73.9414 219.126 74.8706C221.331 75.7999 223.007 77.4216 224.155 79.6992C225.285 81.1387 226.032 81.8857 226.396 81.9586C226.743 82.0315 227.635 81.4302 229.075 80.1365C231.936 77.7131 235.252 75.8546 239.042 74.5609C242.832 73.2854 246.367 72.7752 249.646 73.0668C251.359 73.2125 253.108 73.6498 254.894 74.3605C256.68 75.0711 258.247 76.1826 259.613 77.6767C260.98 79.1708 261.945 81.1387 262.51 83.562C263.093 85.9854 262.948 88.919 262.091 92.3446C261.235 95.6243 260.269 98.7583 259.194 101.765C258.358 104.143 257.51 106.511 256.661 108.885C256.436 109.511 256.212 110.138 255.987 110.766C254.912 113.772 253.91 116.888 252.981 120.095C252.07 123.302 251.304 126.764 250.74 130.481C250.029 134.198 250.266 136.585 251.487 137.66C252.707 138.735 254.384 138.844 256.534 137.988C258.811 137.132 261.217 135.2 263.713 132.194C266.209 129.187 268.669 125.835 271.111 122.118C273.115 118.984 274.901 115.977 276.468 113.116C277.488 111.24 278.417 109.636 279.274 108.251C279.371 107.927 279.458 107.602 279.545 107.276C279.653 106.87 279.762 106.461 279.893 106.047C281.897 99.3414 284.685 93.1645 288.257 87.516C291.828 81.8675 295.836 77.8224 300.264 75.3991C302.688 74.1236 305.129 73.2672 307.553 72.8299C309.994 72.3926 312.199 72.3197 314.203 72.6112C315.916 72.9028 317.538 73.3036 319.032 73.7956C320.526 74.3058 321.838 74.9071 322.986 75.6177C324.698 76.6199 326.083 76.9114 327.158 76.4741C328.233 76.0368 329.126 75.6177 329.837 75.1804C330.693 74.4698 331.732 74.1054 332.934 74.1054C334.137 74.1054 335.212 74.3969 336.141 74.9617C337.071 75.5266 337.745 76.4194 338.182 77.6402C338.601 78.861 338.455 80.3916 337.745 82.2501C337.326 83.2523 336.743 84.8193 336.032 86.9694C335.321 89.1194 334.465 91.5793 333.463 94.3671C332.461 97.1549 331.458 100.161 330.456 103.368C329.454 106.575 328.525 109.837 327.669 113.116C326.958 116.269 326.302 119.257 325.737 122.118C325.172 124.978 324.735 127.62 324.462 130.044C324.17 136.33 326.029 139.336 330.037 139.045C332.625 138.899 335.157 137.569 337.654 135.073C340.15 132.576 342.5 129.698 344.723 126.4C346.928 123.102 349.005 119.712 350.937 116.214L351.12 115.888L351.123 115.883C351.548 115.127 351.958 114.399 352.34 113.7C352.431 113.116 352.649 112.497 352.977 111.823C354.836 108.689 356.731 105.117 358.662 101.109C360.594 97.1185 362.343 93.1281 363.91 89.1194C364.621 87.4067 364.949 86.441 364.876 86.2223C364.785 86.0037 364.402 85.3295 363.691 84.1816C362.963 82.7603 362.616 81.1204 362.616 79.2619C362.616 77.4034 362.853 75.5084 363.363 73.577C363.874 71.6455 364.548 69.8599 365.404 68.22C366.261 66.5619 367.19 65.25 368.192 64.2478C370.196 62.2617 372.383 61.6787 374.733 62.535C377.102 63.3914 378.414 64.7398 378.705 66.5983C378.705 67.7462 378.487 69.131 378.068 70.7709C377.791 71.8189 377.515 72.8451 377.243 73.8541L377.238 73.8725L377.233 73.8934C377.078 74.4674 376.925 75.0358 376.774 75.5995C376.628 76.1826 376.519 76.9296 376.446 77.8589C376.373 78.7882 377.066 79.5352 378.487 80.1001C380.491 80.8107 382.951 81.9222 385.885 83.4163C388.8 84.9104 391.132 86.2952 392.845 87.5889C394.703 88.8826 395.997 90.158 396.708 91.4517C397.418 92.7272 397.746 94.1667 397.673 95.7337C397.601 97.3007 397.2 99.0499 396.489 100.981C396.022 102.251 395.492 103.687 394.898 105.293L394.813 105.523L394.753 105.685C394.488 106.404 394.21 107.156 393.92 107.942C392.918 110.511 391.861 113.044 390.713 115.54C389.583 118.036 388.545 120.441 387.616 122.719C386.686 125.015 385.903 127.147 385.265 129.151C384.627 131.155 384.226 132.868 384.081 134.289C384.081 136.585 385.083 138.079 387.087 138.79C388.927 139.355 391.187 138.353 393.829 135.783C396.471 133.196 399.113 130.098 401.755 126.454C404.397 122.81 406.784 119.202 408.934 115.631C410.221 113.493 411.273 111.734 412.094 110.361L412.096 110.358C412.646 109.439 413.091 108.694 413.435 108.124C414.018 106.994 414.437 106.211 414.728 105.773C414.892 105.464 415.093 105.209 415.311 105.008C415.676 103.605 416.058 102.202 416.441 100.836C416.947 99.1411 417.486 97.3504 418.056 95.4562C418.596 93.6636 419.164 91.7781 419.757 89.7936C420.978 85.7121 422.235 81.3938 423.511 76.8203C424.076 75.1075 424.586 73.3947 425.005 71.682C425.424 69.9692 425.934 68.2564 426.499 66.5437C426.791 65.25 426.645 64.5029 426.08 64.2843C425.515 64.0838 424.659 63.9016 423.511 63.7559L417.516 63.5372C415.512 63.3914 414.091 62.8084 413.234 61.8244C412.378 60.8405 411.959 59.7108 411.959 58.5082C411.959 57.3056 412.414 56.1942 413.344 55.192C414.273 54.1898 415.603 53.6979 417.316 53.6979H426.736C428.594 53.6979 429.706 53.4974 430.052 53.0601C430.417 52.6228 430.726 51.9851 431.018 51.1287C432.731 45.2798 434.243 40.2326 435.518 36.0235C436.794 31.8145 437.577 29.0631 437.869 27.7694C438.306 26.0567 439.236 24.9087 440.657 24.3439C442.078 23.7608 443.426 23.6515 444.72 24.0159C446.014 24.3803 447.016 25.2367 447.727 26.5851C448.437 27.9516 448.364 29.7737 447.508 32.0514C447.216 32.762 446.579 34.8392 445.576 38.2647C444.574 41.6903 443.281 45.9722 441.714 51.1105C441.422 51.8393 441.349 52.5135 441.495 53.1512C441.641 53.789 442.278 54.117 443.426 54.117H450.496C452.209 54.117 453.466 54.6818 454.25 55.8297C455.033 56.9776 455.361 58.1802 455.215 59.4739C455.07 60.7494 454.505 61.8973 453.503 62.8995C452.5 63.9016 450.933 64.3389 448.783 64.1932L441.076 63.9745C439.928 63.9745 438.999 64.1749 438.288 64.6122C437.577 65.0495 437.085 65.9788 436.794 67.4L433.587 78.3326C432.293 82.487 431.091 86.5321 429.943 90.4496C428.813 94.3853 427.738 97.9931 426.736 101.273C425.859 104.472 424.99 107.689 424.118 110.916C423.704 112.449 423.29 113.984 422.873 115.522C421.598 120.314 420.814 125.215 420.523 130.208C420.523 132.649 420.741 134.49 421.16 135.783C421.871 137.933 423.511 138.863 426.08 138.571C428.941 138.28 431.728 136.713 434.443 133.852C437.158 130.991 439.728 127.566 442.151 123.557C444.155 120.715 445.904 117.817 447.399 114.884C448.893 111.95 450.205 109.49 451.353 107.486C451.917 106.63 452.664 106.192 453.594 106.192C454.523 106.192 455.379 106.393 456.163 106.83ZM316.481 112.205C317.92 107.632 318.922 103.168 319.487 98.813V98.8312C320.07 94.4764 319.852 90.8687 318.85 88.008C317.993 85.4388 316.408 83.726 314.13 82.8697C310.978 81.4302 307.261 82.2137 302.979 85.2202C300.556 87.0787 298.278 90.0123 296.128 94.0027C293.978 97.9931 292.119 102.348 290.552 107.067C288.84 112.205 287.783 117.289 287.345 122.282C286.908 127.292 287.418 131.283 288.84 134.289C289.696 136.002 290.917 137.296 292.484 138.152C294.051 139.008 296.055 138.863 298.479 137.715C302.05 136.13 305.512 132.996 308.864 128.276C312.235 123.557 314.768 118.2 316.481 112.205ZM173.938 16.126C172.972 14.978 171.77 14.067 170.33 13.3928C168.891 12.7186 167.215 12.3724 165.283 12.3724C163.352 12.3724 161.675 12.7186 160.236 13.3928C158.796 14.067 157.594 14.978 156.628 16.126C155.662 17.2739 154.934 18.604 154.478 20.0981C154.004 21.5923 153.768 23.1593 153.768 24.7809C153.768 26.4026 154.004 27.9696 154.478 29.4637C154.952 30.9578 155.681 32.288 156.628 33.4359C157.594 34.5838 158.796 35.4949 160.236 36.169C161.675 36.8432 163.352 37.1894 165.283 37.1894C167.215 37.1894 168.891 36.8432 170.33 36.169C171.77 35.4949 172.972 34.5838 173.938 33.4359C174.904 32.288 175.614 30.9578 176.088 29.4637C176.562 27.9696 176.799 26.4026 176.799 24.7809C176.799 23.1593 176.562 21.5923 176.088 20.0981C175.614 18.604 174.886 17.2739 173.938 16.126ZM172.371 28.2065C172.08 29.3362 171.624 30.3383 171.023 31.1947C170.403 32.0693 169.638 32.7617 168.672 33.2901C167.725 33.8185 166.595 34.0918 165.283 34.0918C163.971 34.0918 162.842 33.8185 161.894 33.2901C160.947 32.7617 160.163 32.0511 159.562 31.1947C158.942 30.3201 158.505 29.3362 158.213 28.2065C157.922 27.0768 157.776 25.9288 157.776 24.7809C157.776 23.633 157.922 22.4851 158.213 21.3736C158.505 20.2621 158.96 19.26 159.562 18.3854C160.181 17.4925 160.947 16.8001 161.894 16.2535C162.842 15.7251 163.971 15.4518 165.283 15.4518C166.595 15.4518 167.725 15.7251 168.672 16.2535C169.62 16.7819 170.403 17.4925 171.023 18.3854C171.642 19.2782 172.08 20.2621 172.371 21.3736C172.663 22.4851 172.808 23.6148 172.808 24.7809C172.808 25.9471 172.663 27.0768 172.371 28.2065ZM188.333 13.6662C189.736 12.8098 191.412 12.3907 193.343 12.3907H193.362C195.931 12.3907 197.953 13.156 199.448 14.6501C200.923 16.1625 201.67 18.185 201.67 20.7177V36.6428H197.68V22.2847C197.68 21.3372 197.571 20.4444 197.334 19.6427C197.097 18.8227 196.751 18.1303 196.277 17.5472C195.803 16.9642 195.202 16.4904 194.473 16.1625C193.726 15.8163 192.852 15.6523 191.849 15.6523C190.72 15.6523 189.736 15.8527 188.898 16.29C188.041 16.7273 187.349 17.3104 186.802 18.0392C186.256 18.7863 185.836 19.6244 185.563 20.5719C185.272 21.5194 185.144 22.5216 185.144 23.5602V36.6428H181.154V12.9556H185.162V17.5837C185.855 15.8163 186.911 14.5043 188.333 13.6662ZM223.572 25.4551C222.934 24.9814 222.206 24.5988 221.386 24.3072C220.566 24.0157 219.746 23.7424 218.889 23.5055C218.179 23.3233 217.322 23.1229 216.32 22.9224C215.318 22.722 214.352 22.4669 213.423 22.1389C212.512 21.811 211.71 21.3919 211.054 20.8452C210.398 20.3168 210.07 19.588 210.07 18.6587C210.07 18.3854 210.143 18.021 210.271 17.6019C210.417 17.1646 210.672 16.7455 211.054 16.3447C211.437 15.9256 211.984 15.5612 212.712 15.2696C213.441 14.9599 214.371 14.8141 215.537 14.8141C217.195 14.8141 218.58 15.215 219.709 16.0349C220.839 16.8366 221.404 18.1303 221.404 19.916H225.085C225.048 18.5312 224.775 17.365 224.265 16.3993C223.736 15.4336 223.044 14.6501 222.169 14.067C221.295 13.4657 220.274 13.0467 219.108 12.7734C217.942 12.5183 216.721 12.3907 215.427 12.3907C214.043 12.3907 212.785 12.5365 211.656 12.8462C210.526 13.156 209.542 13.5933 208.74 14.1764C207.92 14.7594 207.301 15.4518 206.864 16.2353C206.426 17.0371 206.208 17.9117 206.208 18.8956C206.208 20.0617 206.426 21.0275 206.864 21.7927C207.301 22.558 207.92 23.1957 208.704 23.7059C209.487 24.2161 210.398 24.617 211.455 24.9267C212.512 25.2365 213.66 25.528 214.917 25.8013C215.956 26.02 216.903 26.2387 217.76 26.4391C218.616 26.6577 219.345 26.931 219.964 27.2408C220.566 27.5688 221.058 27.9696 221.386 28.4616C221.714 28.9536 221.896 29.5913 221.896 30.393C221.896 31.1948 221.695 31.796 221.313 32.3245C220.93 32.8529 220.456 33.2719 219.892 33.5817C219.327 33.9097 218.689 34.1466 217.978 34.2923C217.268 34.4563 216.594 34.5292 215.956 34.5292C213.915 34.5292 212.275 34.0554 211.073 33.108C209.852 32.1605 209.251 30.6663 209.214 28.662H205.406C205.406 30.1562 205.679 31.4498 206.208 32.5431C206.736 33.6364 207.465 34.5292 208.394 35.2034C209.305 35.8958 210.398 36.3877 211.674 36.7157C212.949 37.0437 214.334 37.1895 215.828 37.1895C217.031 37.1895 218.197 37.0619 219.363 36.825C220.529 36.5882 221.586 36.1873 222.534 35.6042C223.481 35.0394 224.246 34.2923 224.829 33.3813C225.413 32.452 225.704 31.3041 225.704 29.9375C225.704 28.8625 225.504 27.9696 225.103 27.259C224.702 26.5302 224.192 25.9471 223.536 25.4734L223.572 25.4551ZM245.62 29.0085C245.911 28.061 246.039 27.0588 246.039 26.0202H246.02V12.9376H250.011V36.5884H246.057V31.9967C245.328 33.7459 244.253 35.0396 242.85 35.8778C241.429 36.716 239.771 37.135 237.839 37.135C235.288 37.135 233.266 36.3698 231.772 34.8756C230.277 33.3815 229.53 31.3772 229.53 28.8263V12.9011H233.521V27.2775C233.521 28.225 233.63 29.1178 233.867 29.9195C234.104 30.7395 234.45 31.4319 234.906 32.0149C235.361 32.598 235.962 33.0718 236.691 33.3997C237.438 33.7459 238.313 33.9099 239.315 33.9099C240.463 33.9099 241.447 33.7095 242.285 33.2722C243.142 32.8349 243.834 32.2518 244.381 31.523C244.927 30.7941 245.346 29.956 245.62 29.0085ZM264.989 7.34324L268.979 4.81053V12.9371H271.457V15.5973H268.979V36.6426H264.989V15.5973H262.511V12.9371H264.989V7.34324ZM293.522 16.126C292.557 14.978 291.354 14.067 289.915 13.3928C288.475 12.7186 286.799 12.3724 284.868 12.3724C282.936 12.3724 281.26 12.7186 279.82 13.3928C278.381 14.067 277.178 14.978 276.213 16.126C275.247 17.2739 274.518 18.604 274.062 20.0981C273.589 21.5923 273.352 23.1593 273.352 24.7809C273.352 26.4026 273.589 27.9696 274.062 29.4637C274.536 30.9578 275.265 32.288 276.213 33.4359C277.178 34.5838 278.381 35.4949 279.82 36.169C281.26 36.8432 282.936 37.1894 284.868 37.1894C286.799 37.1894 288.475 36.8432 289.915 36.169C291.354 35.4949 292.557 34.5838 293.522 33.4359C294.488 32.288 295.199 30.9578 295.673 29.4637C296.146 27.9696 296.383 26.4026 296.383 24.7809C296.383 23.1593 296.146 21.5923 295.673 20.0981C295.199 18.604 294.47 17.2739 293.522 16.126ZM291.956 28.2065C291.664 29.3362 291.208 30.3383 290.607 31.1947C289.988 32.0693 289.222 32.7617 288.257 33.2901C287.309 33.8185 286.179 34.0918 284.868 34.0918C283.556 34.0918 282.426 33.8185 281.478 33.2901C280.531 32.7617 279.747 32.0511 279.146 31.1947C278.527 30.3201 278.089 29.3362 277.798 28.2065C277.506 27.0768 277.361 25.9288 277.361 24.7809C277.361 23.633 277.506 22.4851 277.798 21.3736C278.089 20.2621 278.545 19.26 279.146 18.3854C279.766 17.4925 280.531 16.8001 281.478 16.2535C282.426 15.7251 283.556 15.4518 284.868 15.4518C286.179 15.4518 287.309 15.7251 288.257 16.2535C289.204 16.7819 289.988 17.4925 290.607 18.3854C291.227 19.2782 291.664 20.2621 291.956 21.3736C292.247 22.4851 292.393 23.6148 292.393 24.7809C292.393 25.9471 292.247 27.0768 291.956 28.2065ZM286.161 3.93625H290.607L283.446 10.6416H280.64L286.161 3.93625ZM312.892 12.3907C310.96 12.3907 309.302 12.8098 307.881 13.6662C306.478 14.5043 305.421 15.8163 304.71 17.5837V12.9556H300.72V36.6428H304.71V23.5602C304.71 22.5216 304.838 21.5194 305.129 20.5719C305.403 19.6244 305.822 18.7863 306.368 18.0392C306.915 17.3104 307.607 16.7273 308.464 16.29C309.302 15.8527 310.286 15.6523 311.416 15.6523L313.948 12.4454C313.803 12.4089 313.62 12.3907 313.438 12.3907H312.892ZM320.763 12.9375H316.773V36.6247H320.763V12.9375ZM345.143 16.126C346.09 17.2739 346.819 18.604 347.293 20.0981C347.767 21.5923 348.003 23.1593 348.003 24.7809C348.003 26.4026 347.767 27.9696 347.293 29.4637C346.819 30.9578 346.108 32.288 345.143 33.4359C344.177 34.5838 342.974 35.4949 341.535 36.169C340.095 36.8432 338.419 37.1894 336.488 37.1894C334.556 37.1894 332.88 36.8432 331.44 36.169C330.001 35.4949 328.798 34.5838 327.833 33.4359C326.885 32.288 326.156 30.9578 325.683 29.4637C325.209 27.9696 324.972 26.4026 324.972 24.7809C324.972 23.1593 325.209 21.5923 325.683 20.0981C326.138 18.604 326.867 17.2739 327.833 16.126C328.798 14.978 330.001 14.067 331.44 13.3928C332.88 12.7186 334.556 12.3724 336.488 12.3724C338.419 12.3724 340.095 12.7186 341.535 13.3928C342.974 14.067 344.177 14.978 345.143 16.126ZM342.227 31.1947C342.829 30.3383 343.284 29.3362 343.576 28.2065C343.867 27.0768 344.013 25.9471 344.013 24.7809C344.013 23.6148 343.867 22.4851 343.576 21.3736C343.284 20.2621 342.847 19.2782 342.227 18.3854C341.608 17.4925 340.824 16.7819 339.877 16.2535C338.929 15.7251 337.8 15.4518 336.488 15.4518C335.176 15.4518 334.046 15.7251 333.099 16.2535C332.151 16.8001 331.386 17.4925 330.766 18.3854C330.165 19.26 329.71 20.2621 329.418 21.3736C329.126 22.4851 328.981 23.633 328.981 24.7809C328.981 25.9288 329.126 27.0768 329.418 28.2065C329.71 29.3362 330.147 30.3201 330.766 31.1947C331.368 32.0511 332.151 32.7617 333.099 33.2901C334.046 33.8185 335.176 34.0918 336.488 34.0918C337.8 34.0918 338.929 33.8185 339.877 33.2901C340.843 32.7617 341.608 32.0693 342.227 31.1947ZM92.4691 47.8302C92.0396 46.9371 91.6142 46.0528 91.1604 45.1883C82.9974 29.1174 69.8601 19.3874 51.876 16.5996C70.9534 12.263 89.1561 25.7101 93.5109 44.2955C94.0393 46.8464 94.3855 49.4156 94.586 51.9483C93.7927 50.5822 93.126 49.196 92.4691 47.8302Z" fill="#020A17"></path></svg>